<?xml version="1.0" encoding="UTF-8" standalone="no" ?>
<!DOCTYPE svg PUBLIC "-//W3C//DTD SVG 1.1//EN" "http://www.w3.org/Graphics/SVG/1.1/DTD/svg11.dtd">
<svg xmlns="http://www.w3.org/2000/svg" xmlns:xlink="http://www.w3.org/1999/xlink" version="1.1" width="640" height="480" viewBox="0 0 640 480" xml:space="preserve">
<desc>Created with Fabric.js 3.6.3</desc>
<defs>
</defs>
<g transform="matrix(5.56 0 0 5.56 404.57 202.33)" style=""  >
		<text xml:space="preserve" font-family="'Open Sans', sans-serif" font-size="18" font-style="normal" font-weight="bold" style="stroke: none; stroke-width: 1; stroke-dasharray: none; stroke-linecap: butt; stroke-dashoffset: 0; stroke-linejoin: miter; stroke-miterlimit: 4; fill: rgb(0,0,0); fill-rule: nonzero; opacity: 1; white-space: pre;" ><tspan x="-53.5" y="5.65" >WINNER!</tspan></text>
</g>
<g transform="matrix(7.34 0 0 2.77 333.11 201.75)"  >
<path style="stroke: rgb(0,0,0); stroke-width: 5; stroke-dasharray: none; stroke-linecap: butt; stroke-dashoffset: 0; stroke-linejoin: miter; stroke-miterlimit: 10; fill: none; fill-rule: evenodd; opacity: 1;" vector-effect="non-scaling-stroke"  transform=" translate(-59.83, -59.83)" d="m 0 59.82677 l 27.527777 -8.654488 l -19.512508 -21.258898 l 28.167 6.268881 l -6.268881 -28.167 l 21.258898 19.512508 l 8.654488 -27.527777 l 8.654491 27.527777 l 21.258896 -19.512508 l -6.2688828 28.167 l 28.167 -6.268881 l -19.512512 21.258898 l 27.527779 8.654488 l -27.527779 8.654491 l 19.512512 21.258896 l -28.167 -6.2688828 l 6.2688828 28.167 l -21.258896 -19.512512 l -8.654491 27.527779 l -8.654488 -27.527779 l -21.258898 19.512512 l 6.268881 -28.167 l -28.167 6.2688828 l 19.512508 -21.258896 z" stroke-linecap="round" />
</g>
<g transform="matrix(0.45 0 0 0.45 236.96 360.79)"  >
<circle style="stroke: rgb(0,0,0); stroke-width: 8; stroke-dasharray: none; stroke-linecap: butt; stroke-dashoffset: 0; stroke-linejoin: miter; stroke-miterlimit: 4; fill: none; fill-rule: nonzero; opacity: 1;"  cx="0" cy="0" r="40" />
</g>
<g transform="matrix(0.65 0 0 0.65 235.97 413.46)"  >
<line style="stroke: rgb(0,0,0); stroke-width: 2; stroke-dasharray: none; stroke-linecap: butt; stroke-dashoffset: 0; stroke-linejoin: miter; stroke-miterlimit: 4; fill: rgb(0,0,0); fill-rule: nonzero; opacity: 1;"  x1="-0.5" y1="-51" x2="0.5" y2="51" />
</g>
<g transform="matrix(0.65 0 0 0.65 243.71 453.45)"  >
<line style="stroke: rgb(0,0,0); stroke-width: 2; stroke-dasharray: none; stroke-linecap: butt; stroke-dashoffset: 0; stroke-linejoin: miter; stroke-miterlimit: 4; fill: rgb(0,0,0); fill-rule: nonzero; opacity: 1;"  x1="-11.5" y1="-13" x2="11.5" y2="13" />
</g>
<g transform="matrix(0.65 0 0 0.65 229.84 456.03)"  >
<line style="stroke: rgb(0,0,0); stroke-width: 2; stroke-dasharray: none; stroke-linecap: butt; stroke-dashoffset: 0; stroke-linejoin: miter; stroke-miterlimit: 4; fill: rgb(0,0,0); fill-rule: nonzero; opacity: 1;"  x1="11" y1="-16" x2="-11" y2="16" />
</g>
<g transform="matrix(0.65 0 0 0.65 246.62 404.1)"  >
<line style="stroke: rgb(0,0,0); stroke-width: 2; stroke-dasharray: none; stroke-linecap: butt; stroke-dashoffset: 0; stroke-linejoin: miter; stroke-miterlimit: 4; fill: rgb(0,0,0); fill-rule: nonzero; opacity: 1;"  x1="-14" y1="15.5" x2="14" y2="-15.5" />
</g>
<g transform="matrix(0.65 0 0 0.65 220.81 405.39)"  >
<line style="stroke: rgb(0,0,0); stroke-width: 2; stroke-dasharray: none; stroke-linecap: butt; stroke-dashoffset: 0; stroke-linejoin: miter; stroke-miterlimit: 4; fill: rgb(0,0,0); fill-rule: nonzero; opacity: 1;"  x1="23" y1="10.5" x2="-23" y2="-10.5" />
</g>
<g transform="matrix(0.65 0 0 0.65 232.75 356.05)"  >
<line style="stroke: rgb(0,0,0); stroke-width: 2; stroke-dasharray: none; stroke-linecap: butt; stroke-dashoffset: 0; stroke-linejoin: miter; stroke-miterlimit: 4; fill: rgb(0,0,0); fill-rule: nonzero; opacity: 1;"  x1="0.5" y1="-5" x2="-0.5" y2="5" />
</g>
<g transform="matrix(0.65 0 0 0.65 240.81 357.01)"  >
<line style="stroke: rgb(0,0,0); stroke-width: 2; stroke-dasharray: none; stroke-linecap: butt; stroke-dashoffset: 0; stroke-linejoin: miter; stroke-miterlimit: 4; fill: rgb(0,0,0); fill-rule: nonzero; opacity: 1;"  x1="0" y1="-2.5" x2="0" y2="2.5" />
</g>
<g transform="matrix(0.65 0 0 0.65 240.81 370.84)"  >
<path style="stroke: rgb(0,0,0); stroke-width: 2; stroke-dasharray: none; stroke-linecap: butt; stroke-dashoffset: 0; stroke-linejoin: miter; stroke-miterlimit: 4; fill: none; fill-rule: nonzero; opacity: 1;" vector-effect="non-scaling-stroke"  transform=" translate(-86.33, -323.94)" d="M 70.33331298828125 313 Q 72.33331298828125 342 102.33331298828125 314" stroke-linecap="round" />
</g>
</svg>